<?xml version="1.0" encoding="UTF-8" standalone="no"?>
<svg
   shape-rendering="geometricPrecision"
   text-rendering="geometricPrecision"
   image-rendering="optimizeQuality"
   fill-rule="evenodd"
   clip-rule="evenodd"
   viewBox="0 0 512 512.00001"
   version="1.1"
   id="svg74"
   sodipodi:docname="icon.svg"
   width="512"
   height="512"
   inkscape:version="1.2.2 (b0a8486541, 2022-12-01)"
   xmlns:inkscape="http://www.inkscape.org/namespaces/inkscape"
   xmlns:sodipodi="http://sodipodi.sourceforge.net/DTD/sodipodi-0.dtd"
   xmlns="http://www.w3.org/2000/svg"
   xmlns:svg="http://www.w3.org/2000/svg">
  <defs
     id="defs78" />
  <sodipodi:namedview
     id="namedview76"
     pagecolor="#ffffff"
     bordercolor="#000000"
     borderopacity="0.25"
     inkscape:showpageshadow="2"
     inkscape:pageopacity="0.0"
     inkscape:pagecheckerboard="0"
     inkscape:deskcolor="#d1d1d1"
     showgrid="false"
     inkscape:zoom="0.96267136"
     inkscape:cx="-117.3817"
     inkscape:cy="300.72568"
     inkscape:window-width="1920"
     inkscape:window-height="1012"
     inkscape:window-x="0"
     inkscape:window-y="0"
     inkscape:window-maximized="1"
     inkscape:current-layer="svg74" />
  <path
     fill-rule="nonzero"
     d="m 276.915,462.666 c -32.989,-9.896 -62.965,-28.911 -87.618,-55.815 6.175,0.567 12.783,0.958 19.819,1.159 32.31,0.949 63.167,-3.3 91.339,-11.815 29.561,-8.937 56.687,-22.776 79.927,-40.41 23.979,-18.196 43.56,-40.301 57.238,-65.17 12.232,-22.234 19.84,-46.769 21.81,-72.836 a 195.403,195.403 0 0 1 12.994,13.486 c 19.513,22.316 33.012,48.301 37.715,75.028 4.856,27.594 0.457,55.851 -16.114,81.723 -5.048,7.88 -11.248,15.52 -18.686,22.824 l 8.165,49.068 a 15.502,15.502 0 0 1 -0.8,8.562 c -3.132,8.017 -12.171,11.976 -20.188,8.844 l -55.504,-21.826 c -44.846,17.676 -89.637,19.315 -130.097,7.178 z"
     id="path64" />
  <path
     fill="#d8f0f0"
     d="m 212.522,408.09 c 51.415,47.307 122.9,61.072 194.383,30.61 l 61.283,24.098 -9.593,-57.651 c 57.022,-49.859 43.787,-119.134 -1.727,-167.884 -3.555,18.854 -10.111,36.745 -19.248,53.352 -13.678,24.869 -33.259,46.974 -57.238,65.17 -23.24,17.634 -50.366,31.473 -79.927,40.41 -27.181,8.215 -56.861,12.459 -87.933,11.895 z"
     id="path66" />
  <path
     fill-rule="nonzero"
     d="m 369.951,81.167 c 38.685,33.165 61.879,78.348 60.427,127.704 l -0.004,0.172 c -1.516,49.407 -27.413,93.189 -68.065,124.036 -39.713,30.136 -93.646,47.911 -152.383,46.183 -15.058,-0.442 -29.669,-1.977 -43.59,-4.684 -11.877,-2.308 -23.389,-5.475 -34.399,-9.545 L 25.552,397.527 57.501,321.543 C 40.26,306.163 26.278,288.345 16.435,268.837 5.175,246.521 -0.707,222.009 0.068,196.392 1.561,146.96 27.462,103.156 68.131,72.297 153.769,7.313 288.299,11.166 369.951,81.167 Z"
     id="path68" />
  <path
     fill="#91ddac"
     d="m 220.09,41.665 c 110.235,3.244 197.422,77.965 194.731,166.89 -2.688,88.93 -94.233,158.397 -204.469,155.154 -27.75,-0.815 -54.238,-5.665 -77.796,-15.126 L 52.755,372.957 76.273,317.024 C 37.672,286.444 14.205,243.602 15.622,196.819 18.307,107.889 109.855,38.424 220.09,41.665 Z"
     id="path70" />
  <path
     fill-rule="nonzero"
     d="m 129.631,242.936 c -5.368,0 -9.72,-4.352 -9.72,-9.72 0,-5.368 4.352,-9.72 9.72,-9.72 H 249.43 c 5.368,0 9.72,4.352 9.72,9.72 0,5.368 -4.352,9.72 -9.72,9.72 z m 0,-68.927 c -5.368,0 -9.72,-4.352 -9.72,-9.72 0,-5.367 4.352,-9.719 9.72,-9.719 h 171.178 c 5.368,0 9.719,4.352 9.719,9.719 0,5.368 -4.351,9.72 -9.719,9.72 z"
     id="path72" />
</svg>
